<svg width="192" height="192" viewBox="0 0 192 192" fill="none" xmlns="http://www.w3.org/2000/svg">
<rect width="192" height="192" rx="16" fill="#151515"/>
<g clip-path="url(#clip0_17_13)">
<path d="M72.4543 138.305L55.643 135.78C49.6981 134.887 44.3515 131.669 40.7793 126.833C37.2071 121.998 35.7019 115.942 36.5949 109.997L44.171 59.5632C45.064 53.6183 48.282 48.2717 53.1171 44.6995C57.9523 41.1273 64.0084 39.6222 69.9533 40.5152L131.595 49.7748C137.54 50.6678 142.887 53.8858 146.459 58.721C150.031 63.5561 151.536 69.6122 150.643 75.5571L148.118 92.3685M82.0026 36.5949L80.3191 47.8025M121.229 42.4874L119.546 53.695M43.3292 65.167L149.801 81.1609M129.358 121.886L119.69 129.029" stroke="#5AC390" stroke-width="9" stroke-linecap="round" stroke-linejoin="round"/>
<path d="M115.601 156.247C131.076 158.571 145.505 147.911 147.829 132.437C150.154 116.962 139.493 102.533 124.019 100.209C108.545 97.8844 94.1156 108.545 91.7911 124.019C89.4666 139.493 100.127 153.922 115.601 156.247Z" stroke="#5AC390" stroke-width="9" stroke-linecap="round" stroke-linejoin="round"/>
</g>
<defs>
<clipPath id="clip0_17_13">
<rect width="136" height="136" fill="white" transform="translate(38.856 18.6531) rotate(8.5429)"/>
</clipPath>
</defs>
</svg>
